<svg width="23" height="22" viewBox="0 0 23 22" fill="none" xmlns="http://www.w3.org/2000/svg">
<path d="M15.0745 6.00136C15.2334 5.84241 15.4221 5.71632 15.6298 5.6303C15.8375 5.54428 16.0601 5.5 16.2848 5.5C16.5096 5.5 16.7322 5.54428 16.9399 5.6303C17.1476 5.71632 17.3363 5.84241 17.4952 6.00136C17.6542 6.16031 17.7803 6.34901 17.8663 6.55669C17.9523 6.76436 17.9966 6.98695 17.9966 7.21174C17.9966 7.43653 17.9523 7.65912 17.8663 7.8668C17.7803 8.07447 17.6542 8.26317 17.4952 8.42212L9.32514 16.5922L5.99658 17.5L6.90437 14.1714L15.0745 6.00136Z" stroke="#79C167" stroke-width="1.66667" stroke-linecap="round" stroke-linejoin="round"/>
</svg>
