<svg width="31" height="28" viewBox="0 0 31 28" fill="none" xmlns="http://www.w3.org/2000/svg">
<path d="M8.5 0C6.56953 0 5 1.56953 5 3.5V24.5C5 26.4305 6.56953 28 8.5 28H22.5C24.4305 28 26 26.4305 26 24.5V8.75H19C18.032 8.75 17.25 7.96797 17.25 7V0H8.5ZM19 0V7H26L19 0ZM11.125 14H19.875C20.3562 14 20.75 14.3938 20.75 14.875C20.75 15.3562 20.3562 15.75 19.875 15.75H11.125C10.6438 15.75 10.25 15.3562 10.25 14.875C10.25 14.3938 10.6438 14 11.125 14ZM11.125 17.5H19.875C20.3562 17.5 20.75 17.8937 20.75 18.375C20.75 18.8563 20.3562 19.25 19.875 19.25H11.125C10.6438 19.25 10.25 18.8563 10.25 18.375C10.25 17.8937 10.6438 17.5 11.125 17.5ZM11.125 21H19.875C20.3562 21 20.75 21.3937 20.75 21.875C20.75 22.3563 20.3562 22.75 19.875 22.75H11.125C10.6438 22.75 10.25 22.3563 10.25 21.875C10.25 21.3937 10.6438 21 11.125 21Z" fill="#0096FF"/>
</svg>
