<svg width="35" height="25" viewBox="0 0 35 25" fill="none" xmlns="http://www.w3.org/2000/svg">
<path d="M5 6.25C5 4.52637 6.40137 3.125 8.125 3.125H26.875C28.5986 3.125 30 4.52637 30 6.25V18.75C30 20.4736 28.5986 21.875 26.875 21.875H8.125C6.40137 21.875 5 20.4736 5 18.75V6.25ZM8.125 7.8125V10.9375C8.125 11.8018 8.82324 12.5 9.6875 12.5H25.3125C26.1768 12.5 26.875 11.8018 26.875 10.9375V7.8125C26.875 6.94824 26.1768 6.25 25.3125 6.25H9.6875C8.82324 6.25 8.125 6.94824 8.125 7.8125ZM8.90625 15.625C8.25684 15.625 7.73438 16.1475 7.73438 16.7969C7.73438 17.4463 8.25684 17.9688 8.90625 17.9688H11.6406C12.29 17.9688 12.8125 17.4463 12.8125 16.7969C12.8125 16.1475 12.29 15.625 11.6406 15.625H8.90625ZM15.5469 15.625C14.8975 15.625 14.375 16.1475 14.375 16.7969C14.375 17.4463 14.8975 17.9688 15.5469 17.9688H17.8906C18.54 17.9688 19.0625 17.4463 19.0625 16.7969C19.0625 16.1475 18.54 15.625 17.8906 15.625H15.5469Z" fill="#0096FF"/>
</svg>
