<svg width="23" height="26" viewBox="0 0 23 26" fill="none" xmlns="http://www.w3.org/2000/svg">
<path d="M4.8 6.42623C4.8 4.72189 5.47428 3.08735 6.67452 1.8822C7.87475 0.677047 9.50261 0 11.2 0C12.8974 0 14.5253 0.677047 15.7255 1.8822C16.9257 3.08735 17.6 4.72189 17.6 6.42623C17.6 8.13057 16.9257 9.76511 15.7255 10.9703C14.5253 12.1754 12.8974 12.8525 11.2 12.8525C9.50261 12.8525 7.87475 12.1754 6.67452 10.9703C5.47428 9.76511 4.8 8.13057 4.8 6.42623ZM0 24.2138C0 19.2686 3.99 15.2623 8.915 15.2623H13.485C18.41 15.2623 22.4 19.2686 22.4 24.2138C22.4 25.0372 21.735 25.7049 20.915 25.7049H1.485C0.665 25.7049 0 25.0372 0 24.2138Z" fill="#0096FF"/>
</svg>
