<svg width="34" height="25" viewBox="0 0 34 25" fill="none" xmlns="http://www.w3.org/2000/svg">
<g clip-path="url(#clip0_59_5153)">
<path d="M4.51562 4.29688C4.51562 3.57167 4.80371 2.87617 5.3165 2.36338C5.8293 1.85059 6.5248 1.5625 7.25 1.5625C7.9752 1.5625 8.6707 1.85059 9.18349 2.36338C9.69629 2.87617 9.98438 3.57167 9.98438 4.29688C9.98438 5.02208 9.69629 5.71758 9.18349 6.23037C8.6707 6.74316 7.9752 7.03125 7.25 7.03125C6.5248 7.03125 5.8293 6.74316 5.3165 6.23037C4.80371 5.71758 4.51562 5.02208 4.51562 4.29688ZM4.125 11.9971C3.63672 12.5439 3.34375 13.2715 3.34375 14.0625C3.34375 14.8535 3.63672 15.5811 4.125 16.1279V11.9971ZM11.1758 9.58984C9.72559 10.874 8.8125 12.7539 8.8125 14.8438C8.8125 16.5186 9.39844 18.0566 10.375 19.2627V20.3125C10.375 21.1768 9.67676 21.875 8.8125 21.875H5.6875C4.82324 21.875 4.125 21.1768 4.125 20.3125V19.0039C2.2793 18.125 1 16.2451 1 14.0625C1 11.04 3.44629 8.59375 6.46875 8.59375H8.03125C9.20312 8.59375 10.2871 8.95996 11.1758 9.58496V9.58984ZM22.875 20.3125V19.2627C23.8516 18.0566 24.4375 16.5186 24.4375 14.8438C24.4375 12.7539 23.5244 10.874 22.0742 9.58496C22.9629 8.95996 24.0469 8.59375 25.2188 8.59375H26.7812C29.8037 8.59375 32.25 11.04 32.25 14.0625C32.25 16.2451 30.9707 18.125 29.125 19.0039V20.3125C29.125 21.1768 28.4268 21.875 27.5625 21.875H24.4375C23.5732 21.875 22.875 21.1768 22.875 20.3125ZM23.2656 4.29688C23.2656 3.57167 23.5537 2.87617 24.0665 2.36338C24.5793 1.85059 25.2748 1.5625 26 1.5625C26.7252 1.5625 27.4207 1.85059 27.9335 2.36338C28.4463 2.87617 28.7344 3.57167 28.7344 4.29688C28.7344 5.02208 28.4463 5.71758 27.9335 6.23037C27.4207 6.74316 26.7252 7.03125 26 7.03125C25.2748 7.03125 24.5793 6.74316 24.0665 6.23037C23.5537 5.71758 23.2656 5.02208 23.2656 4.29688ZM29.125 11.9971V16.1328C29.6133 15.5811 29.9062 14.8584 29.9062 14.0674C29.9062 13.2764 29.6133 12.5488 29.125 12.002V11.9971ZM16.625 1.5625C17.4538 1.5625 18.2487 1.89174 18.8347 2.47779C19.4208 3.06384 19.75 3.8587 19.75 4.6875C19.75 5.5163 19.4208 6.31116 18.8347 6.89721C18.2487 7.48326 17.4538 7.8125 16.625 7.8125C15.7962 7.8125 15.0013 7.48326 14.4153 6.89721C13.8292 6.31116 13.5 5.5163 13.5 4.6875C13.5 3.8587 13.8292 3.06384 14.4153 2.47779C15.0013 1.89174 15.7962 1.5625 16.625 1.5625ZM12.7188 14.8438C12.7188 15.6348 13.0117 16.3574 13.5 16.9092V12.7783C13.0117 13.3301 12.7188 14.0527 12.7188 14.8438ZM19.75 12.7783V16.9141C20.2383 16.3623 20.5312 15.6396 20.5312 14.8486C20.5312 14.0576 20.2383 13.3301 19.75 12.7832V12.7783ZM22.875 14.8438C22.875 17.0264 21.5957 18.9062 19.75 19.7852V21.875C19.75 22.7393 19.0518 23.4375 18.1875 23.4375H15.0625C14.1982 23.4375 13.5 22.7393 13.5 21.875V19.7852C11.6543 18.9062 10.375 17.0264 10.375 14.8438C10.375 11.8213 12.8213 9.375 15.8438 9.375H17.4062C20.4287 9.375 22.875 11.8213 22.875 14.8438Z" fill="#0096FF"/>
</g>
<defs>
<clipPath id="clip0_59_5153">
<rect width="31.25" height="25" fill="white" transform="translate(1)"/>
</clipPath>
</defs>
</svg>
