<svg width="76" height="76" viewBox="0 0 76 76" fill="none" xmlns="http://www.w3.org/2000/svg">
<path fill-rule="evenodd" clip-rule="evenodd" d="M11.2054 32.488C11.5785 32.0809 12.2111 32.0534 12.6182 32.4265L37.9997 55.6929L63.3811 32.4265C63.7882 32.0534 64.4208 32.0809 64.794 32.488C65.1671 32.8951 65.1396 33.5277 64.7325 33.9009L38.6754 57.7866C38.2931 58.137 37.7063 58.137 37.3239 57.7866L11.2668 33.9009C10.8597 33.5277 10.8322 32.8951 11.2054 32.488Z" fill="#008C15"/>
<path fill-rule="evenodd" clip-rule="evenodd" d="M24.9205 24.2473C25.2982 23.8444 25.9311 23.824 26.334 24.2017L38.001 35.1396L49.668 24.2017C50.0709 23.824 50.7037 23.8444 51.0814 24.2473C51.4592 24.6502 51.4388 25.2831 51.0358 25.6608L38.6849 37.2398C38.3003 37.6004 37.7017 37.6004 37.317 37.2398L24.9661 25.6608C24.5632 25.2831 24.5428 24.6502 24.9205 24.2473Z" fill="#008C15"/>
</svg>
