<svg width="80" height="81" viewBox="0 0 80 81" fill="none" xmlns="http://www.w3.org/2000/svg">
<path fill-rule="evenodd" clip-rule="evenodd" d="M52.2353 54.9812C52.6233 55.345 53.2327 55.3253 53.5964 54.9373C53.9602 54.5494 53.9405 53.94 53.5525 53.5762L41.6591 42.4261C41.2886 42.0788 40.7122 42.0788 40.3418 42.4261L28.4484 53.5762C28.0604 53.94 28.0407 54.5494 28.4044 54.9373C28.7682 55.3253 29.3776 55.345 29.7656 54.9812L41.0004 44.4486L52.2353 54.9812ZM65.4431 47.0612C65.8351 47.4205 66.4443 47.394 66.8036 47.002C67.163 46.61 67.1365 46.0008 66.7445 45.6415L41.6525 22.6404C41.2843 22.3029 40.7192 22.3029 40.3511 22.6404L15.259 45.6415C14.867 46.0008 14.8405 46.61 15.1999 47.002C15.5593 47.394 16.1684 47.4205 16.5604 47.0612L41.0018 24.6566L65.4431 47.0612Z" fill="#008C15"/>
</svg>
