<svg width="23" height="22" viewBox="0 0 23 22" fill="none" xmlns="http://www.w3.org/2000/svg">
<path d="M5.49658 6.99992H6.82992M6.82992 6.99992H17.4966M6.82992 6.99992V16.3333C6.82992 16.6869 6.97039 17.026 7.22044 17.2761C7.47049 17.5261 7.80963 17.6666 8.16325 17.6666H14.8299C15.1835 17.6666 15.5227 17.5261 15.7727 17.2761C16.0228 17.026 16.1632 16.6869 16.1632 16.3333V6.99992H6.82992ZM8.82992 6.99992V5.66659C8.82992 5.31296 8.97039 4.97382 9.22044 4.72378C9.47049 4.47373 9.80963 4.33325 10.1632 4.33325H12.8299C13.1835 4.33325 13.5227 4.47373 13.7727 4.72378C14.0228 4.97382 14.1632 5.31296 14.1632 5.66659V6.99992M10.1632 10.3333V14.3333M12.8299 10.3333V14.3333" stroke="#EF0707" stroke-width="1.66667" stroke-linecap="round" stroke-linejoin="round"/>
</svg>
