<svg width="38" height="56" viewBox="0 0 38 56" fill="none" xmlns="http://www.w3.org/2000/svg">
<path fill-rule="evenodd" clip-rule="evenodd" d="M3.14905 54.7072C0.609619 54.6174 0.5 45.8762 0.5 44.2028L0.504761 44.1991C0.504761 35.5945 1.83533 31.4857 2.68054 28.8761C3.09766 27.588 3.39648 26.6652 3.35864 25.7472C3.30664 24.483 2.71082 23.5778 2.07703 22.6149C1.31812 21.462 0.504761 20.2264 0.504761 18.1927V10.3014C0.504761 7.79053 3.66931 5.65552 5.43396 4.46503C6.11609 4.00476 6.58899 3.68567 6.58899 3.54059V3.0202C6.58899 3.0202 6.11255 1.91211 6.11255 1.04364C6.11255 0.676758 6.26013 0.306152 6.77954 0.306152H12.2252C12.7399 0.306152 12.8922 0.676758 12.8922 1.04364C12.8922 1.91211 12.4158 3.0202 12.4158 3.0202V3.54059C12.4158 3.68561 12.8883 4.00421 13.5701 4.46381C15.3346 5.65338 18.5 7.78748 18.5 10.3014V10.3062H5.5C4.39539 10.3062 3.5 11.2016 3.5 12.3062V17.3062C3.5 18.4107 4.39539 19.3062 5.5 19.3062H18.4121C18.182 20.7095 17.5372 21.6889 16.9277 22.6149C16.2939 23.5778 15.6981 24.483 15.6461 25.7472C15.6083 26.6652 15.9071 27.588 16.3242 28.8761C17.1694 31.4857 18.5 35.5945 18.5 44.1991C18.5 49.7919 17.3661 54.5237 15.2793 54.5986C14.6477 54.6218 14.2747 54.5344 13.9078 54.4485C13.5636 54.3678 13.2247 54.2884 12.6826 54.3029C11.9122 54.325 11.4507 54.5662 10.9908 54.8066C10.5122 55.0569 10.0354 55.3062 9.21411 55.3062C8.45349 55.3062 7.94653 55.0438 7.45203 54.7878C6.98328 54.5452 6.52588 54.3085 5.87427 54.3066C5.28711 54.3049 4.96558 54.405 4.64099 54.506C4.27551 54.6199 3.90601 54.7349 3.14905 54.7072ZM18.5 12.3062H7C6.17163 12.3062 5.5 12.9777 5.5 13.8062C5.5 14.6346 6.17163 15.3062 7 15.3062H18.5V12.3062ZM29.1295 28.3309C28.4424 29.4852 26.9305 29.8864 25.7443 29.2177C24.5579 28.5491 24.1456 27.0781 24.8328 25.9238L26.9812 22.3062L29.1295 25.9238C29.5708 26.6699 29.5708 27.5848 29.1295 28.3309ZM35.1691 34.1023C34.4819 35.2495 32.9701 35.6507 31.7838 34.9821H31.7766C30.5975 34.3134 30.1851 32.8425 30.8723 31.6882L33.0207 28.0705L35.1691 31.6882C35.6103 32.4342 35.6103 33.3563 35.1691 34.1023ZM37.3162 38.4774C37.1958 38.369 37.0311 38.3062 36.8663 38.3062H23.1337C22.9626 38.3062 22.8042 38.369 22.6838 38.4774C22.5634 38.5859 22.5 38.7343 22.5 38.8884L22.7661 51.6984C22.7852 52.6574 23.2097 53.5651 23.9575 54.2386C24.718 54.9237 25.7192 55.3062 26.7839 55.3062H33.2224C34.287 55.3062 35.2883 54.9294 36.0425 54.2386C36.7902 53.5593 37.2148 52.6574 37.2338 51.6984L37.5 38.8884C37.5 38.7343 37.4366 38.5859 37.3162 38.4774ZM24.5 40.3062H35.5V45.1299C32.8481 45.595 31.4749 45.0509 30.1472 44.5248C28.7213 43.9599 27.3481 43.4158 24.5 44.1651V40.3062Z" fill="#008C15"/>
</svg>
