<svg width="62" height="91" viewBox="0 0 62 91" fill="none" xmlns="http://www.w3.org/2000/svg">
<path fill-rule="evenodd" clip-rule="evenodd" d="M5.16659 89.3261C1.01116 89.1791 0.831787 74.8754 0.831787 72.1371L0.839577 72.131C0.839577 58.0508 3.01687 51.3273 4.39995 47.057C5.0825 44.9492 5.57149 43.4391 5.50957 41.9369C5.42447 39.8682 4.44949 38.3871 3.41238 36.8113C2.17052 34.9249 0.839577 32.9029 0.839577 29.5751V16.662C0.839577 12.5533 6.01793 9.05966 8.90554 7.11158C10.0218 6.35842 10.7956 5.83627 10.7956 5.59887V4.74733C10.7956 4.74733 10.016 2.93408 10.016 1.51295C10.016 0.912598 10.2575 0.306152 11.1074 0.306152H20.0185C20.8607 0.306152 21.11 0.912598 21.11 1.51295C21.11 2.93408 20.3303 4.74733 20.3303 4.74733V5.59887C20.3303 5.83617 21.1036 6.35752 22.2192 7.10959C25.1066 9.05616 30.2863 12.5483 30.2863 16.662V16.6698H9.01361C7.20605 16.6698 5.74088 18.1351 5.74088 19.9425V28.1243C5.74088 29.9318 7.20605 31.3971 9.01361 31.3971H30.1425C29.766 33.6935 28.7109 35.2961 27.7135 36.8113C26.6764 38.3871 25.7014 39.8682 25.6163 41.9369C25.5544 43.4391 26.0434 44.9492 26.726 47.057C28.109 51.3273 30.2863 58.0508 30.2863 72.131C30.2863 81.2829 28.4308 89.0258 25.0161 89.1484C23.9826 89.1863 23.3721 89.0433 22.7719 88.9027C22.2086 88.7707 21.6541 88.6407 20.767 88.6645C19.5063 88.7005 18.7511 89.0954 17.9986 89.4888C17.2154 89.8983 16.4352 90.3062 15.0912 90.3062C13.8466 90.3062 13.017 89.8768 12.2078 89.458C11.4408 89.061 10.6923 88.6736 9.62604 88.6706C8.66524 88.6677 8.13909 88.8315 7.60795 88.9969C7.0099 89.1832 6.40525 89.3714 5.16659 89.3261ZM30.2863 19.9425H11.4682C10.1126 19.9425 9.01361 21.0414 9.01361 22.3971C9.01361 23.7527 10.1126 24.8516 11.4682 24.8516H30.2863V19.9425ZM47.6801 46.1649C46.5557 48.0536 44.0818 48.7101 42.1406 47.616C40.1993 46.5218 39.5246 44.1148 40.6491 42.226L44.1647 36.3062L47.6801 42.226C48.4022 43.4468 48.4022 44.944 47.6801 46.1649ZM57.563 55.6089C56.4385 57.4862 53.9647 58.1427 52.0234 57.0485H52.0116C50.0822 55.9544 49.4074 53.5474 50.5319 51.6585L54.0475 45.7387L57.563 51.6585C58.285 52.8793 58.285 54.3881 57.563 55.6089ZM61.0765 62.7682C60.8795 62.5907 60.6099 62.488 60.3402 62.488H37.8687C37.5888 62.488 37.3296 62.5907 37.1326 62.7682C36.9355 62.9457 36.8318 63.1886 36.8318 63.4408L37.2672 84.4025C37.2984 85.9718 37.9931 87.4571 39.2168 88.5593C40.4613 89.6803 42.0996 90.3062 43.8418 90.3062H54.3776C56.1197 90.3062 57.7581 89.6896 58.9922 88.5593C60.2158 87.4477 60.9106 85.9718 60.9417 84.4025L61.3772 63.4408C61.3772 63.1886 61.2736 62.9457 61.0765 62.7682ZM40.1045 65.7607H58.1045V73.6541C53.765 74.4152 51.5179 73.5248 49.3454 72.664C47.0121 71.7396 44.765 70.8492 40.1045 72.0753V65.7607Z" fill="#008C15"/>
</svg>
