<svg width="48" height="56" viewBox="0 0 48 56" fill="none" xmlns="http://www.w3.org/2000/svg">
<path fill-rule="evenodd" clip-rule="evenodd" d="M27.344 10.6171C30.1907 10.6171 32.5002 8.30791 32.5002 5.46165C32.5002 2.61538 30.1907 0.306152 27.344 0.306152C24.4973 0.306152 22.1877 2.61538 22.1877 5.46165C22.1877 8.30791 24.4973 10.6171 27.344 10.6171ZM37.4954 26.6314L34.9924 25.364L33.9504 22.2063C32.3713 17.4159 27.967 14.0649 22.9719 14.0541C19.5664 14.0447 17.5021 14.8931 14.3142 16.2034C13.882 16.381 13.4291 16.5671 12.9495 16.7608C10.6292 17.6952 8.72778 19.4674 7.6106 21.7229L6.89087 23.1837C6.05298 24.8807 6.72974 26.9429 8.41626 27.7914C10.092 28.6399 12.1331 27.9525 12.9817 26.2555L13.7014 24.7947C14.0774 24.0429 14.7004 23.4522 15.4739 23.1407L18.3528 21.9807L16.72 28.5003C16.1614 30.7343 16.7629 33.108 18.3206 34.8157L24.7551 41.8401C25.5286 42.6886 26.0764 43.709 26.3557 44.8152L28.3215 52.6881C28.7835 54.5248 30.6526 55.6525 32.4895 55.1907C34.3264 54.7288 35.4544 52.86 34.9924 51.0233L32.6077 41.4642C32.3284 40.3579 31.7805 39.3268 31.0071 38.489L26.1194 33.1509L27.967 25.7721L28.5579 27.5443C29.1272 29.2736 30.3518 30.7021 31.9631 31.5184L34.4661 32.7858C36.1418 33.6343 38.1829 32.9469 39.0315 31.2499C39.8586 29.5636 39.1819 27.4799 37.4954 26.6314ZM12.9065 41.7434C12.5627 42.6134 12.0471 43.3975 11.3811 44.0527L6.01001 49.4337C4.66724 50.7763 4.66724 52.9566 6.01001 54.2992C7.35278 55.6418 9.52271 55.6418 10.8655 54.2992L17.2463 47.9193C17.9016 47.2641 18.4172 46.48 18.7717 45.61L20.2219 41.9797C19.3431 41.0216 18.6333 40.2487 18.0588 39.6231C15.8058 37.1697 15.6322 36.9807 15.4996 36.7662C15.4885 36.7483 15.4778 36.7303 15.4661 36.7107C15.4121 36.6203 15.339 36.4977 15.1301 36.212L12.9065 41.7434ZM14.9869 7.82654C14.9956 7.70741 14.9999 7.58717 14.9999 7.46595C14.9999 4.61627 12.5748 2.30615 9.58327 2.30615C7.92866 2.30615 6.44733 3.01285 5.45376 4.12668C5.01977 3.97599 4.55121 3.89379 4.0625 3.89379C1.81884 3.89379 0 5.62638 0 7.76364C0 7.81531 0.001063 7.86674 0.0031693 7.91792C0.00106784 7.94741 0 7.97718 0 8.00718C0 8.12095 0.0153557 8.23131 0.0442006 8.33648C0.061063 8.44473 0.0826317 8.55152 0.108702 8.65666H0.182427C0.418205 9.04493 0.858896 9.30615 1.36364 9.30615H13.6364C14.1411 9.30615 14.5818 9.04492 14.8176 8.65664H14.855C14.8653 8.61518 14.875 8.57352 14.8843 8.53168C14.9587 8.37127 15 8.19383 15 8.00718C15 7.94588 14.9955 7.88558 14.9869 7.82654ZM48 7.99172C48 8.0783 47.9967 8.16419 47.9904 8.24929C47.9967 8.29146 48 8.33453 48 8.37831C48 8.51163 47.9697 8.63838 47.9151 8.75296C47.9084 8.78284 47.9012 8.8126 47.8937 8.84222H47.8662C47.6933 9.11956 47.3701 9.30615 47 9.30615H38C37.6299 9.30615 37.3067 9.11956 37.1338 8.84223H37.0797C37.0606 8.76713 37.0448 8.69085 37.0324 8.61353C37.0113 8.53841 37 8.45958 37 8.37831C37 8.35688 37.0008 8.33562 37.0023 8.31455C37.0008 8.278 37 8.24126 37 8.20436C37 6.67774 38.3338 5.44018 39.9792 5.44018C40.3376 5.44018 40.6812 5.49889 40.9994 5.60653C41.728 4.81094 42.8144 4.30615 44.0277 4.30615C46.2215 4.30615 48 5.95624 48 7.99172Z" fill="#008C15"/>
</svg>
