<svg width="79" height="90" viewBox="0 0 79 90" fill="none" xmlns="http://www.w3.org/2000/svg">
<path fill-rule="evenodd" clip-rule="evenodd" d="M44.7447 16.8725C49.4029 16.8725 53.1822 13.0938 53.1822 8.43626C53.1822 3.77874 49.4029 0 44.7447 0C40.0865 0 36.3072 3.77874 36.3072 8.43626C36.3072 13.0938 40.0865 16.8725 44.7447 16.8725ZM61.3561 43.0777L57.2604 41.0038L55.5553 35.8366C52.9713 27.9979 45.7643 22.5143 37.5904 22.4967C32.0178 22.4812 28.6398 23.8696 23.4232 26.0137C22.7159 26.3043 21.9749 26.6089 21.19 26.9257C17.3932 28.4548 14.2818 31.3548 12.4537 35.0456L11.276 37.4359C9.90488 40.2129 11.0123 43.5874 13.7721 44.9758C16.5143 46.3643 19.8541 45.2395 21.2428 42.4625L22.4205 40.0723C23.0357 38.842 24.0553 37.8753 25.3209 37.3656L30.0318 35.4675L27.36 46.1358C26.4459 49.7915 27.4303 53.6757 29.9791 56.4702L40.5084 67.9647C41.774 69.3531 42.6705 71.0228 43.1276 72.8331L46.3443 85.716C47.1002 88.7214 50.1588 90.5668 53.1647 89.8111C56.1705 89.0553 58.0162 85.9972 57.2604 82.9918L53.358 67.3495C52.901 65.5392 52.0045 63.852 50.7389 62.4811L42.7408 53.746L45.7643 41.6716L46.7311 44.5716C47.6627 47.4013 49.6666 49.7388 52.3033 51.0746L56.399 53.1485C59.1412 54.5369 62.4811 53.4121 63.8697 50.6352C65.2233 47.8758 64.1158 44.4661 61.3561 43.0777ZM21.1197 67.8065C20.5572 69.2301 19.7135 70.5131 18.6236 71.5852L9.83456 80.3906C7.6373 82.5875 7.6373 86.1554 9.83456 88.3523C12.0318 90.5492 15.5826 90.5492 17.7799 88.3523L28.2213 77.9124C29.2936 76.8403 30.1373 75.5573 30.7174 74.1337L33.0904 68.1931C31.6524 66.6253 30.4909 65.3605 29.5508 64.3368C25.8641 60.3223 25.58 60.0129 25.363 59.662C25.3449 59.6327 25.3273 59.6031 25.3081 59.5711C25.2199 59.4231 25.1002 59.2226 24.7584 58.7551L21.1197 67.8065ZM24.6226 11.8868C24.6226 7.22368 20.577 3.27273 15.6817 3.27273C12.9742 3.27273 10.5502 4.42915 8.92434 6.25177C8.21417 6.0052 7.44744 5.87068 6.64773 5.87068C2.97629 5.87068 0 8.70583 0 12.2032C0 13.5336 0.78632 14.7273 2.23141 14.7273H22.3141C24.2127 14.7273 24.6226 13.3898 24.6226 11.8868ZM78.1132 12.7359C78.1132 12.8775 78.1236 13.0211 78.1132 13.1604C78.1132 13.5849 77.9959 13.7943 77.8875 13.9681C77.6046 14.4219 77.0758 14.7273 76.4701 14.7273H61.7428C61.1371 14.7273 60.6083 14.4219 60.3253 13.9681H60.2369C60.2056 13.8452 60.1797 13.7204 60.1595 13.5939C60.1249 13.471 60.1064 13.342 60.1064 13.209C60.1064 13.1739 60.1077 13.1391 60.1102 13.1047C60.1077 13.0448 60.1064 12.9847 60.1064 12.9243C60.1064 10.4262 62.289 8.40114 64.9814 8.40114C65.5679 8.40114 66.1301 8.49722 66.6509 8.67334C67.8432 7.37147 69.6208 6.54545 71.6063 6.54545C75.1962 6.54545 78.1132 9.40506 78.1132 12.7359Z" fill="#008C15"/>
</svg>
