<svg width="46" height="56" viewBox="0 0 46 56" fill="none" xmlns="http://www.w3.org/2000/svg">
<g clip-path="url(#clip0_2001_80)">
<path d="M23.0023 0.306152C22.7726 0.306152 22.5474 0.31066 22.3312 0.319674C18.6378 0.490951 15.985 4.08775 17.0434 7.63047C17.3091 8.5184 17.7145 9.10886 18.3316 8.91955C20.1152 8.37417 22.0204 8.09923 24.0157 8.22543C31.8888 8.73025 38.1855 15.2883 38.3882 23.1806C38.6269 32.3078 30.9294 39.6952 21.7051 38.938C14.8184 38.3701 9.08474 33.1507 7.86414 26.3447C7.34617 23.4645 7.67046 20.7106 8.57127 18.2451C8.91358 17.3121 7.76505 17.0417 6.4904 17.0056C3.33756 16.9245 0.675656 19.408 0.630615 22.5631C0.630615 22.6036 0.630615 22.6487 0.630615 22.6893C0.630615 32.4746 6.42734 38.8794 21.1376 54.5016C22.1465 55.5743 23.8535 55.5743 24.8625 54.5016C39.5727 38.8749 45.3694 32.5241 45.3694 22.6893C45.3694 10.3303 35.3569 0.306152 23.0023 0.306152ZM21.8402 22.5405C21.8537 20.5393 18.836 20.5258 18.3991 18.0062C17.9893 15.6489 23.4167 12.9085 28.1279 11.8132C26.556 11.1281 24.8264 10.745 23.0023 10.745C15.9129 10.745 10.1657 16.4963 10.1657 23.5907C10.1657 25.3395 10.517 27.0027 11.1476 28.5217C13.305 25.1547 21.8177 26.0787 21.8402 22.536V22.5405ZM21.7276 31.8165C21.7276 33.8087 22.5834 35.2961 23.849 36.4049C30.5421 35.9677 35.8389 30.4012 35.8389 23.5907C35.8389 18.9212 33.3481 14.8331 29.6233 12.584C26.8217 13.0122 22.4483 14.6348 23.0023 16.4737C23.7635 18.9888 29.907 18.8896 29.907 22.5135C29.907 27.805 21.7231 24.0054 21.7231 31.8165H21.7276Z" fill="#008C15"/>
</g>
<defs>
<clipPath id="clip0_2001_80">
<rect width="44.7388" height="55" fill="white" transform="translate(0.630615 0.306152)"/>
</clipPath>
</defs>
</svg>
