<svg width="38" height="56" viewBox="0 0 38 56" fill="none" xmlns="http://www.w3.org/2000/svg">
<path fill-rule="evenodd" clip-rule="evenodd" d="M32 9.30615V6.68616C32 4.92615 31.288 3.33618 30.1508 2.17615C29.0136 1.01617 27.4314 0.306152 25.691 0.306152H6.30902C4.57849 0.306152 2.99628 1.02612 1.84918 2.18616C0.711975 3.33618 0 4.93616 0 6.68616V48.9261C0 50.6862 0.711975 52.2761 1.84918 53.4362C2.98639 54.5961 4.5686 55.3062 6.30902 55.3062H25.6811C27.3622 55.3062 28.9543 54.6262 30.1409 53.4261C31.288 52.2662 31.9901 50.6761 31.9901 48.9261V36.3062H34C36.2092 36.3062 38 34.5153 38 32.3062V13.3062C38 11.097 36.2092 9.30615 34 9.30615H32ZM28 9.30615V7.30615C28 5.64929 26.6569 4.30615 25 4.30615H22.8293C22.4175 5.47137 21.3062 6.30615 20 6.30615H12C10.6938 6.30615 9.58252 5.47137 9.17072 4.30615H7C5.34314 4.30615 4 5.64929 4 7.30615V36.3062C4 37.963 5.34314 39.3062 7 39.3062H25C26.6569 39.3062 28 37.963 28 36.3062H15C12.7908 36.3062 11 34.5153 11 32.3062V13.3062C11 11.097 12.7908 9.30615 15 9.30615H28ZM25.5 44.3062C24.1193 44.3062 23 45.4254 23 46.8062C23 48.1869 24.1193 49.3062 25.5 49.3062C26.8807 49.3062 28 48.1869 28 46.8062C28 45.4254 26.8807 44.3062 25.5 44.3062ZM4 46.8062C4 45.4254 5.11926 44.3062 6.5 44.3062H17.5C18.8807 44.3062 20 45.4254 20 46.8062C20 48.1869 18.8807 49.3062 17.5 49.3062H6.5C5.11926 49.3062 4 48.1869 4 46.8062ZM16.8146 16.3062L20.5055 25.1287L24.1827 16.3062H25.9973V27.8533H24.1827V20.2102L21.2134 27.8533H19.7838L16.8146 20.1277V27.8533H15V16.3062H16.8146ZM28.0317 21.0624C28.7328 20.3339 29.6676 19.9627 30.8498 19.9627C31.9495 19.9627 32.843 20.3201 33.5166 20.9937C34.1902 21.6673 34.5339 22.5471 34.5339 23.6193C34.5339 23.8118 34.5063 24.1417 34.4789 24.6091H28.774C28.7878 25.2139 28.994 25.6675 29.3652 25.9975C29.7363 26.3137 30.2587 26.4786 30.9185 26.4786C31.7708 26.4786 32.3344 26.1762 32.6368 25.5988H34.4514C34.3276 26.3137 33.9427 26.9047 33.2829 27.3584C32.6368 27.812 31.8395 28.0457 30.9185 28.0457C29.7088 28.0457 28.7466 27.6883 28.0455 26.9597C27.3444 26.2311 26.987 25.2277 26.987 24.0042C26.987 22.7808 27.3307 21.791 28.0317 21.0624ZM29.3376 21.901C28.9665 22.2447 28.774 22.6846 28.774 23.2344L28.7878 23.2482H32.7743C32.7606 22.6433 32.5818 22.1897 32.252 21.8735C31.9083 21.5574 31.4547 21.3924 30.8223 21.3924C30.1899 21.3924 29.7088 21.5574 29.3376 21.901Z" fill="#008C15"/>
</svg>
