<svg width="34" height="22" viewBox="0 0 34 22" fill="none" xmlns="http://www.w3.org/2000/svg">
<path d="M17.0008 0C16.5958 0 16.1958 0.0687364 15.8158 0.2013L1.79077 5.17488C1.31577 5.34672 1.00077 5.7886 1.00077 6.28448C1.00077 6.78037 1.31577 7.22225 1.79077 7.39409L4.68577 8.42022C3.86577 9.68694 3.40077 11.1844 3.40077 12.7604V14.1401C3.40077 15.5345 2.86077 16.973 2.28577 18.1072C1.96077 18.7454 1.59077 19.3739 1.16077 19.9532C1.00077 20.1644 0.95577 20.4393 1.04577 20.6897C1.13577 20.9401 1.34577 21.1267 1.60577 21.1905L4.80577 21.976C5.01577 22.0301 5.24077 21.9908 5.42577 21.8779C5.61077 21.7649 5.74077 21.5784 5.78077 21.3672C6.21077 19.2659 5.99577 17.3805 5.67577 16.0303C5.51577 15.3332 5.30077 14.6212 5.00077 13.9682V12.7604C5.00077 11.2777 5.51077 9.87842 6.39577 8.759C7.04077 7.99799 7.87577 7.38427 8.85577 7.00622L16.7058 3.9769C17.1158 3.81979 17.5808 4.01618 17.7408 4.41878C17.9008 4.82138 17.7008 5.27798 17.2908 5.4351L9.44077 8.46441C8.82077 8.70499 8.27577 9.07322 7.83077 9.52492L15.8108 12.3529C16.1908 12.4855 16.5908 12.5542 16.9958 12.5542C17.4008 12.5542 17.8008 12.4855 18.1808 12.3529L32.2108 7.39409C32.6858 7.22716 33.0008 6.78037 33.0008 6.28448C33.0008 5.7886 32.6858 5.34672 32.2108 5.17488L18.1858 0.2013C17.8058 0.0687364 17.4058 0 17.0008 0ZM7.40077 18.4607C7.40077 20.1938 11.7008 21.9957 17.0008 21.9957C22.3008 21.9957 26.6008 20.1938 26.6008 18.4607L25.8358 11.3219L18.7258 13.8455C18.1708 14.0419 17.5858 14.1401 17.0008 14.1401C16.4158 14.1401 15.8258 14.0419 15.2758 13.8455L8.16577 11.3219L7.40077 18.4607Z" fill="#0096FF"/>
</svg>
