<svg width="26" height="28" viewBox="0 0 26 28" fill="none" xmlns="http://www.w3.org/2000/svg">
<path d="M14.7333 2.44201C14.7333 1.4785 13.9587 0.700073 13 0.700073C12.0413 0.700073 11.2667 1.4785 11.2667 2.44201V14.6356C11.2667 15.5991 12.0413 16.3775 13 16.3775C13.9587 16.3775 14.7333 15.5991 14.7333 14.6356V2.44201ZM6.90625 7.26499C7.64292 6.64987 7.74042 5.55027 7.12833 4.80995C6.51625 4.06963 5.42208 3.97165 4.68542 4.58677C1.82542 6.98193 0 10.5964 0 14.6356C0 21.8483 5.82292 27.7001 13 27.7001C20.1771 27.7001 26 21.8483 26 14.6356C26 10.5964 24.1692 6.98193 21.3092 4.58677C20.5725 3.97165 19.4783 4.07507 18.8662 4.80995C18.2542 5.54483 18.3571 6.64987 19.0883 7.26499C21.1954 9.02326 22.5279 11.6743 22.5279 14.6356C22.5279 19.9267 18.2596 24.2162 12.9946 24.2162C7.72958 24.2162 3.46125 19.9267 3.46125 14.6356C3.46125 11.6743 4.79917 9.02326 6.90083 7.26499H6.90625Z" fill="#0096FF"/>
</svg>
