<svg width="30" height="29" viewBox="0 0 30 29" fill="none" xmlns="http://www.w3.org/2000/svg">
<g clip-path="url(#clip0_59_5173)">
<path d="M9.4375 7.25C9.4375 9.17282 10.2013 11.0169 11.561 12.3765C12.9206 13.7362 14.7647 14.5 16.6875 14.5C18.6103 14.5 20.4544 13.7362 21.814 12.3765C23.1737 11.0169 23.9375 9.17282 23.9375 7.25C23.9375 5.32718 23.1737 3.48311 21.814 2.12348C20.4544 0.763837 18.6103 0 16.6875 0C14.7647 0 12.9206 0.763837 11.561 2.12348C10.2013 3.48311 9.4375 5.32718 9.4375 7.25ZM14.79 18.5895L15.8436 20.3453L13.9574 27.3631L11.9184 19.0426C11.8051 18.5838 11.3633 18.2836 10.9045 18.4025C6.93965 19.3937 4 22.9848 4 27.2611C4 28.224 4.78164 29 5.73887 29H13.2041C13.2041 29 13.2041 29 13.2098 29H13.5156H19.8594H20.1709C20.1709 29 20.1709 29 20.1766 29H27.6361C28.599 29 29.375 28.2184 29.375 27.2611C29.375 22.9848 26.4354 19.3937 22.4705 18.4025C22.0117 18.2893 21.5699 18.5895 21.4566 19.0426L19.4176 27.3631L17.5314 20.3453L18.585 18.5895C18.9475 17.9834 18.5113 17.2188 17.809 17.2188H16.6875H15.5717C14.8693 17.2188 14.4332 17.9891 14.7957 18.5895H14.79Z" fill="#0096FF"/>
</g>
<defs>
<clipPath id="clip0_59_5173">
<rect width="29.375" height="29" fill="white"/>
</clipPath>
</defs>
</svg>
