<svg width="25" height="26" viewBox="0 0 25 26" fill="none" xmlns="http://www.w3.org/2000/svg">
<path d="M24.9307 8.8396C25.0965 9.2644 24.9566 9.73804 24.5991 10.0408L22.356 11.9646C22.413 12.3699 22.444 12.7849 22.444 13.2048C22.444 13.6248 22.413 14.0398 22.356 14.4451L24.5991 16.3689C24.9566 16.6716 25.0965 17.1453 24.9307 17.5701C24.7028 18.1511 24.4282 18.7078 24.1122 19.2449L23.8687 19.6404C23.5268 20.1775 23.1434 20.6853 22.7238 21.1638C22.4181 21.5154 21.9104 21.6326 21.4546 21.4958L18.569 20.6316C17.8748 21.1345 17.1081 21.5544 16.2896 21.8718L15.642 24.6599C15.5384 25.1042 15.1757 25.4558 14.6991 25.5291C13.9842 25.6414 13.2486 25.7 12.4974 25.7C11.7462 25.7 11.0106 25.6414 10.2957 25.5291C9.81907 25.4558 9.45644 25.1042 9.35282 24.6599L8.70526 21.8718C7.88673 21.5544 7.12001 21.1345 6.42582 20.6316L3.54544 21.5007C3.08956 21.6375 2.58186 21.5154 2.27621 21.1687C1.85659 20.6902 1.47323 20.1824 1.13131 19.6453L0.887828 19.2498C0.571815 18.7126 0.297247 18.156 0.069303 17.575C-0.0964742 17.1501 0.0434003 16.6765 0.400857 16.3738L2.64403 14.45C2.58704 14.0398 2.55596 13.6248 2.55596 13.2048C2.55596 12.7849 2.58704 12.3699 2.64403 11.9646L0.400857 10.0408C0.0434003 9.73804 -0.0964742 9.2644 0.069303 8.8396C0.297247 8.25855 0.571815 7.7019 0.887828 7.16479L1.13131 6.76929C1.47323 6.23218 1.85659 5.72437 2.27621 5.24585C2.58186 4.89429 3.08956 4.7771 3.54544 4.91382L6.431 5.77808C7.12519 5.27515 7.89191 4.85522 8.71044 4.53784L9.35801 1.74976C9.46162 1.30542 9.82425 0.953857 10.3009 0.880615C11.0158 0.763428 11.7514 0.704834 12.5026 0.704834C13.2538 0.704834 13.9894 0.763428 14.7043 0.875732C15.1809 0.948975 15.5436 1.30054 15.6472 1.74487L16.2947 4.53296C17.1133 4.85034 17.88 5.27026 18.5742 5.77319L21.4597 4.90894C21.9156 4.77222 22.4233 4.89429 22.729 5.24097C23.1486 5.71948 23.532 6.22729 23.8739 6.7644L24.1174 7.15991C24.4334 7.69702 24.7079 8.25366 24.9359 8.83472L24.9307 8.8396ZM12.5026 17.1111C13.6018 17.1111 14.6559 16.6995 15.4331 15.967C16.2104 15.2344 16.647 14.2408 16.647 13.2048C16.647 12.1688 16.2104 11.1753 15.4331 10.4427C14.6559 9.71013 13.6018 9.29858 12.5026 9.29858C11.4034 9.29858 10.3493 9.71013 9.57204 10.4427C8.79481 11.1753 8.35816 12.1688 8.35816 13.2048C8.35816 14.2408 8.79481 15.2344 9.57204 15.967C10.3493 16.6995 11.4034 17.1111 12.5026 17.1111Z" fill="#0096FF"/>
</svg>
