<svg width="42" height="25" viewBox="0 0 42 25" fill="none" xmlns="http://www.w3.org/2000/svg">
<path d="M9.8 6.25C9.8 4.5924 10.4743 3.00269 11.6745 1.83058C12.8747 0.65848 14.5026 0 16.2 0C17.8974 0 19.5253 0.65848 20.7255 1.83058C21.9257 3.00269 22.6 4.5924 22.6 6.25C22.6 7.9076 21.9257 9.49732 20.7255 10.6694C19.5253 11.8415 17.8974 12.5 16.2 12.5C14.5026 12.5 12.8747 11.8415 11.6745 10.6694C10.4743 9.49732 9.8 7.9076 9.8 6.25ZM5 23.5498C5 18.7402 8.99 14.8438 13.915 14.8438H18.485C23.41 14.8438 27.4 18.7402 27.4 23.5498C27.4 24.3506 26.735 25 25.915 25H6.485C5.665 25 5 24.3506 5 23.5498ZM35.465 25H28.57C28.84 24.541 29 24.0088 29 23.4375V23.0469C29 20.083 27.645 17.4219 25.51 15.6348C25.63 15.6299 25.745 15.625 25.865 15.625H28.935C33.39 15.625 37 19.1504 37 23.501C37 24.3311 36.31 25 35.465 25ZM26.6 12.5C25.05 12.5 23.65 11.8848 22.635 10.8936C23.62 9.59473 24.2 7.98828 24.2 6.25C24.2 4.94141 23.87 3.70605 23.285 2.62207C24.215 1.95801 25.36 1.5625 26.6 1.5625C29.695 1.5625 32.2 4.00879 32.2 7.03125C32.2 10.0537 29.695 12.5 26.6 12.5Z" fill="#0096FF"/>
</svg>
