<svg width="17" height="16" viewBox="0 0 17 16" fill="none" xmlns="http://www.w3.org/2000/svg">
<path d="M0.383067 7.0587C-0.127689 7.57933 -0.127689 8.42483 0.383067 8.94546L6.92074 15.6095C7.4315 16.1302 8.26097 16.1302 8.77172 15.6095C9.28248 15.0889 9.28248 14.2434 8.77172 13.7228L3.15749 8L8.76764 2.27724C9.27839 1.75661 9.27839 0.911102 8.76764 0.390472C8.25688 -0.130157 7.42741 -0.130157 6.91666 0.390472L0.378981 7.05454L0.383067 7.0587ZM14.766 0.394637L8.22828 7.0587C7.71752 7.57933 7.71752 8.42483 8.22828 8.94546L14.766 15.6095C15.2767 16.1302 16.1062 16.1302 16.6169 15.6095C17.1277 15.0889 17.1277 14.2434 16.6169 13.7228L11.0027 8L16.6128 2.27724C17.1236 1.75661 17.1236 0.911102 16.6128 0.390472C16.1021 -0.130157 15.2726 -0.130157 14.7619 0.390472L14.766 0.394637Z" fill="white"/>
</svg>
